<?xml version="1.0" encoding="utf-8"?>
<!-- Generator: Adobe Illustrator 27.8.1, SVG Export Plug-In . SVG Version: 6.00 Build 0)  -->
<svg version="1.1" id="Layer_1" xmlns="http://www.w3.org/2000/svg" xmlns:xlink="http://www.w3.org/1999/xlink" x="0px" y="0px"
	 viewBox="0 0 595.3 222.4" style="enable-background:new 0 0 595.3 222.4;" xml:space="preserve">
<style type="text/css">
	.st0{fill:#FFFFFF;}
	.st1{fill-rule:evenodd;clip-rule:evenodd;fill:#F26522;}
	.st2{fill:none;stroke:#FFFFFF;stroke-miterlimit:10;}
</style>
<g>
	<path class="st0" d="M317.7,79.3H297c-1.7,0-3.2,1.1-3.7,2.6c0,0,0,0,0,0l-0.1,0.4l-22.9,74.5h18.3l2.5-8c0,0,0,0,0,0l0.1-0.5
		c0.6-1.4,1.9-2.5,3.5-2.5H317c1.7,0,3.2,1.2,3.7,2.8c0,0,0,0,0,0.1l2.5,8.2h18.3L317.7,79.3z M297.3,128.3l7.5-24.3v0l0.1-0.4
		c0.2-0.3,0.6-0.6,1-0.6c0.5,0,0.9,0.3,1.1,0.8l7.5,24.5H297.3z"/>
	<path class="st0" d="M369.7,100.5c-3.8,0-7.3,0.7-10.6,2.1v-23h-13.5c-1.7,0-3.2,1.1-3.7,2.6c0,0,0,0,0,0l-0.1,0.4
		c-0.1,0.3-0.1,0.6-0.1,0.9v48.1c1.5,14.1,13.6,25,28.1,25c15.5,0,28.1-12.6,28.1-28.1C397.8,113.1,385.1,100.5,369.7,100.5
		 M369.7,138.8c-5.8,0-10.5-4.7-10.5-10.5c0-5.8,4.7-10.5,10.5-10.5c5.8,0,10.5,4.7,10.5,10.5C380.1,134.1,375.4,138.8,369.7,138.8"
		/>
	<path class="st0" d="M505.4,117.4v39.3h-17.5v-32.9c0-3.2-2.6-5.8-5.8-5.8c-3.2,0-5.8,2.6-5.8,5.8v32.9h-17.5v-52.1
		c0-0.1,0-0.3,0-0.4c0-0.2,0-0.4,0.1-0.5l0.1-0.4c0,0,0,0,0,0c0.6-1.5,2-2.6,3.7-2.6h13.5v5.3c3.1-3.2,7.4-5.2,12.2-5.2
		c0.4,0,0.9,0,1.3,0C498.4,101.4,505.3,108.6,505.4,117.4"/>
	<path class="st0" d="M545.3,100.6l-0.9,0l-9.3,0h-0.7c-3.8,0.1-7.2,1.3-10,3.4c-4.3,3.2-7.1,8.3-7.1,14c0,3.4,1,6.5,2.6,9.2
		c0.1,0.2,0.2,0.3,0.3,0.5c0,0,0,0,0,0l0.8,1.1c0,0,0,0,0,0l0.4,0.6c0,0,0,0,0,0l2.1,2.8l0,0l0.6,0.8c0.3,0.5,0.6,1.1,0.7,1.7
		c0.1,0.5,0.2,0.9,0.2,1.4c0,3.2-2.6,5.8-5.8,5.8c-1.8,0-3.4-0.8-4.4-2.1c-0.2-0.2-0.3-0.4-0.5-0.6c-0.1-0.2-0.3-0.5-0.4-0.7v18.2
		H529c9.5,0,17.3-7.7,17.5-17.2v-0.7c0-2.4-0.6-4.7-1.5-6.7c-0.4-1-1-2-1.6-2.9c0,0,0,0,0,0l-1-1.3l-0.3-0.4
		c-0.7-0.9-1.1-1.5-1.4-1.9c0-0.1-0.3-0.4-0.3-0.4c-0.1-0.1-0.2-0.3-0.3-0.4c-0.1-0.2-0.2-0.3-0.4-0.5c0,0,0,0,0,0
		c-0.6-0.9-1-2-1-3.1c0,0,0,0,0-0.1v0c0-3.2,2.6-5.8,5.8-5.8c1.7,0,3.2,0.7,4.3,1.9v-0.1v-12.6C548.8,102.5,547.3,100.8,545.3,100.6
		"/>
	<path class="st0" d="M432.6,100h-9.3v0c-4.1,0-8.8,0.1-13.1,0.6c-0.1,0-0.1,0-0.2,0c-3.6,0.6-3.5,3.9-3.5,3.9l0,0v9.9
		c1-0.3,5-1.6,9.6-2.4c0.5-0.1,0.9-0.1,1.4-0.2c6.9-0.9,14.4-0.3,15,6.5v1.8c0,0,0,0,0,0c-0.7-0.4-1.4-0.7-2.1-1
		c-2.3-1-4.8-1.5-7.5-1.5c-2.1,0-4.1,0.3-6,1c-0.5,0.2-1,0.4-1.5,0.6c-2.9,1.2-5.4,3.1-7.3,5.4c0,0.1-0.1,0.1-0.1,0.2
		c-0.3,0.4-0.7,0.8-1,1.2c-1.5,2.1-2.5,4.4-3,6.9c-0.1,0.4-0.2,0.9-0.3,1.4c0,0.1,0,0.2,0,0.3c0,0,0,0.1,0,0.1c0,0.1,0,0.2,0,0.4
		c0,0.1,0,0.2,0,0.3c0,0,0,0,0,0c0,0.4-0.1,0.7-0.1,1.1c0,0,0,0,0,0.1c0,0.1,0,0.2,0,0.3c0,0.1,0,0.2,0,0.4c0,0.2,0,0.3,0,0.5
		c0.1,4.6,1.7,9.1,4.7,12.6c2.4,2.7,5.5,4.6,9,5.6c0.1,0,0.1,0,0.2,0.1c1.8,0.5,3.6,0.8,5.6,0.8c1.9,0,3.7-0.3,5.4-0.8
		c0.2,0,0.3-0.1,0.5-0.1c0,0,0.1,0,0.1,0c0.1,0,0.2-0.1,0.3-0.1c0.2-0.1,0.3-0.1,0.5-0.2c0.2-0.1,0.4-0.1,0.6-0.2
		c0.2-0.1,0.4-0.2,0.6-0.2c0.2-0.1,0.3-0.2,0.5-0.2c0.4-0.2,0.8-0.4,1.1-0.6v2.5H450v-39.6C449.8,107.7,442.1,100,432.6,100
		 M426.7,142.9c-3.2,0-5.7-2.6-5.7-5.7c0-2,1.1-3.8,2.7-4.8c0.9-0.6,2-0.9,3.1-0.9c2.3,0,4.4,1.4,5.2,3.4c0.3,0.7,0.5,1.5,0.5,2.3
		C432.4,140.3,429.9,142.9,426.7,142.9"/>
</g>
<g>
	<path class="st1" d="M147.3,73.5c-10.6-10.6-25.9-11.8-44.6-11.8c-18.7,0-34,1.2-44.6,11.8c-10.6,10.6-11.7,25.9-11.7,44.6
		s1.1,34,11.7,44.6c10.6,10.6,25.9,11.7,44.6,11.7s34-1.1,44.6-11.7c10.6-10.6,11.7-25.9,11.7-44.6C159.1,99.4,158,84.1,147.3,73.5"
		/>
	<path class="st0" d="M97.9,113.1h-9.6c-0.4,0-0.7,0.3-0.7,0.7v25.1c0,0.4,0.3,0.7,0.7,0.7h9.6c0.4,0,0.7-0.3,0.7-0.7v-25.1
		C98.6,113.4,98.3,113.1,97.9,113.1"/>
	<path class="st0" d="M126.4,139.6h9.1c0.4,0,0.7-0.3,0.7-0.7V97.2c0-0.4-0.3-0.7-0.7-0.7h-9.1c-0.4,0-0.7,0.3-0.7,0.7v41.7
		C125.7,139.3,126,139.6,126.4,139.6"/>
	<path class="st0" d="M69.5,139.6h9.1c0.4,0,0.7-0.3,0.7-0.7v-32.8c0-0.4,0.3-0.7,0.7-0.7h16.6c3.3,0.1,6.4,0.5,8.1,2.2
		c2,2,2.2,5.8,2.2,9.6v21.7c0,0.4,0.3,0.7,0.7,0.7h9.1c0.4,0,0.7-0.3,0.7-0.7V118c0-6.9-0.3-14.1-3.9-17.7
		c-3.6-3.6-10.8-3.9-17.7-3.9H69.5c-0.4,0-0.7,0.3-0.7,0.7v41.7C68.7,139.3,69.1,139.6,69.5,139.6"/>
</g>
<line class="st2" x1="214" y1="62.3" x2="214" y2="173.8"/>
</svg>
